<svg width="78" height="49" viewBox="0 0 78 49" fill="none" xmlns="http://www.w3.org/2000/svg">
<path d="M15.5754 44.154C15.5754 43.7555 15.4933 43.4582 15.3291 43.2811C15.1649 43.0977 14.7985 43.0028 14.2238 43.0028H13.0111C12.4805 43.0028 12.1269 43.1041 11.95 43.3001C11.7732 43.4962 11.6847 43.7808 11.6847 44.1476V45.7984C11.6847 46.1653 11.7732 46.4499 11.95 46.6523C12.1269 46.8484 12.4805 46.9496 13.0111 46.9496H14.2238C14.7985 46.9496 15.1586 46.861 15.3165 46.6776C15.4744 46.4942 15.5565 46.2096 15.5754 45.8174V44.154ZM17.2113 48.0691C16.8576 48.4296 16.1944 48.6067 15.2217 48.6067H12.0447C11.0847 48.6067 10.4152 48.4359 10.0489 48.088C9.67622 47.7402 9.48672 47.2152 9.48672 46.5195V43.4456C9.48672 42.7435 9.67622 42.2249 10.0489 41.877C10.4152 41.5292 11.0847 41.3584 12.0447 41.3584H15.2217C16.1881 41.3584 16.8513 41.5355 17.2113 41.896C17.565 42.2565 17.7418 42.7752 17.7418 43.4456V46.5195C17.7481 47.1962 17.5713 47.7086 17.2113 48.0691Z" fill="#394854"/>
<path d="M26.7233 48.0691C26.3696 48.4296 25.7064 48.6067 24.7401 48.6067H21.5631C20.603 48.6067 19.9398 48.4359 19.5609 48.088C19.1882 47.7402 19.0051 47.2215 19.0051 46.5195V43.4456C19.0051 42.7435 19.1882 42.2249 19.5609 41.877C19.9335 41.5292 20.603 41.3584 21.5631 41.3584H24.7401C25.7064 41.3584 26.3633 41.5355 26.7233 41.896C27.0833 42.2565 27.2538 42.7752 27.2538 43.4456V44.1603H25.0811C25.0811 43.7618 24.999 43.4646 24.8348 43.2875C24.6706 43.1041 24.3042 43.0092 23.7295 43.0092H22.5168C21.9862 43.0092 21.6325 43.1104 21.4557 43.3064C21.2788 43.5088 21.1904 43.7871 21.1904 44.154V45.8048C21.1904 46.1779 21.2788 46.4562 21.4557 46.6586C21.6325 46.8547 21.9862 46.9559 22.5168 46.9559H23.7295C24.2979 46.9559 24.6642 46.861 24.8348 46.6839C24.999 46.5005 25.0811 46.2096 25.0811 45.8048H27.2538V46.5195C27.2601 47.1962 27.0833 47.7086 26.7233 48.0691Z" fill="#394854"/>
<path d="M30.696 48.6067H28.5359L28.5233 46.5195V43.4393L28.5359 41.3584H30.696V44.1287H34.593V41.3584H36.772V48.6067H34.593V45.7795H30.696V48.6067Z" fill="#394854"/>
<path d="M40.8269 45.7795H40.208C40.2143 46.159 40.309 46.4562 40.4859 46.6586C40.6627 46.8547 41.0164 46.9559 41.547 46.9559H46.284V48.6067H40.5932C39.6332 48.6067 38.9637 48.4359 38.5911 48.088C38.2184 47.7402 38.0352 47.2152 38.0352 46.5195V43.4456C38.0352 42.7435 38.2184 42.2249 38.5911 41.877C38.9637 41.5292 39.6269 41.3584 40.5932 41.3584H46.284V43.0092H41.547C41.0164 43.0092 40.6627 43.1104 40.4859 43.3064C40.309 43.5025 40.2143 43.7808 40.208 44.1287H46.284V45.7795H40.8269Z" fill="#394854"/>
<path d="M62.9773 43.0028H59.9962V41.3584H68.2324V43.0028H65.1311V48.6067H62.9773V43.0028Z" fill="#394854"/>
<path d="M49.6379 44.9888C49.6379 44.0843 50.3958 44.1855 50.3958 44.1855H52.5875V45.7161H50.3832C50.3768 45.7161 49.6379 45.7478 49.6379 44.9888ZM56.9329 45.7161H54.7286V44.1855H56.9203C56.9203 44.1855 57.6719 44.0843 57.6719 44.9888C57.6719 45.7478 56.9329 45.7161 56.9329 45.7161ZM58.0824 42.6549H54.7286V41.333H52.5875V42.6549H49.1578C49.1578 42.6549 47.2062 42.7118 47.2062 44.9319C47.2062 47.1519 49.2084 47.1646 49.2084 47.1646H52.5875V48.6003H54.7286V47.1646H58.0319C58.0319 47.1646 60.0341 47.1519 60.0341 44.9319C60.0341 42.7118 58.0824 42.6549 58.0824 42.6549Z" fill="#394854"/>
<path d="M35.3573 18.8164H32.5087V33.0284H35.3573V18.8164Z" fill="#394854"/>
<path d="M38.7301 15.8818H35.8816V33.0286H38.7301V15.8818Z" fill="#394854"/>
<path d="M42.1028 18.8164H39.2543V33.0284H42.1028V18.8164Z" fill="#394854"/>
<path d="M28.6055 19.3731L25.7632 16.8368V9.55688H28.6055V19.3731Z" fill="#394854"/>
<path d="M31.9781 22.5419L29.1359 19.7463V6.3313H31.9781V22.5419Z" fill="#394854"/>
<path d="M35.3573 3.1687H32.5087V18.3737H35.3573V3.1687Z" fill="#394854"/>
<path d="M38.7301 0H35.8816V15.2556H38.7301V0Z" fill="#394854"/>
<path d="M45.9998 19.3731L48.8484 16.8368V9.55688H45.9998V19.3731Z" fill="#394854"/>
<path d="M42.627 22.5419L45.4756 19.7463V6.3313H42.627V22.5419Z" fill="#394854"/>
<path d="M42.1028 3.1687H39.2543V18.3737H42.1028V3.1687Z" fill="#394854"/>
<path d="M5.34968 44.4575H2.15376V43.0092H5.34968C5.74759 43.0092 6.07604 43.3317 6.07604 43.7365C6.07604 44.1287 5.74759 44.4575 5.34968 44.4575ZM7.69924 41.8896C7.34554 41.5291 6.68238 41.3521 5.71602 41.3521H0V48.6004H2.16008V46.102H5.71602C6.6887 46.102 7.34554 45.9249 7.69924 45.5644C8.05294 45.2039 8.23612 44.6853 8.23612 44.0148V43.4393C8.22981 42.7688 8.05294 42.2502 7.69924 41.8896Z" fill="#394854"/>
<path d="M75.2811 46.2286C75.2811 46.627 74.9589 46.9559 74.5547 46.9559H71.3588V45.5075H74.5547C74.9589 45.5012 75.2811 45.8301 75.2811 46.2286ZM77.4412 46.5195V45.9439C77.4412 45.2672 77.2644 44.7485 76.9107 44.3943C76.557 44.0338 75.8938 43.8567 74.9211 43.8567H71.3651V41.3584H69.205V48.6067H74.9211C75.8938 48.6067 76.5506 48.4296 76.9107 48.0691C77.258 47.7086 77.4412 47.1899 77.4412 46.5195Z" fill="#394854"/>
</svg>
