<svg width="70" height="64" viewBox="0 0 70 64" fill="none" xmlns="http://www.w3.org/2000/svg">
<g clip-path="url(#clip0)">
<path d="M0 43.0513H2.85292L4.71353 48.2895H4.75487L6.57413 43.0513H9.4684V51.236H7.5251L7.56645 45.4248H7.5251L5.37507 51.236H3.96929L1.8606 45.4248H1.81926L1.90195 51.236H0V43.0513Z" fill="#394854"/>
<path d="M11.453 43.0513H16.9935V44.7291H13.355V46.2433H16.8281V47.8393H13.355V49.5581H17.2002V51.236H11.453V43.0513Z" fill="#394854"/>
<path d="M18.4407 47.1437C18.4407 44.5246 20.4253 42.8467 22.9475 42.8467C24.1052 42.8467 25.3456 43.2559 26.0485 44.0335L24.684 45.384C24.3119 44.8929 23.6504 44.6473 23.0302 44.6473C21.6244 44.6473 20.6321 45.7113 20.6321 47.1437C20.6321 48.6169 21.583 49.64 22.9888 49.64C23.7744 49.64 24.3946 49.3126 24.7254 48.8216L26.1312 50.1311C25.3869 50.9496 24.3119 51.4816 22.9061 51.4816C20.3426 51.4407 18.4407 49.6809 18.4407 47.1437Z" fill="#394854"/>
<path d="M26.71 47.1437C26.71 44.5246 28.6946 42.8467 31.2168 42.8467C32.3745 42.8467 33.6149 43.2559 34.3178 44.0335L32.9533 45.384C32.5812 44.8929 31.9196 44.6473 31.2994 44.6473C29.8937 44.6473 28.9013 45.7113 28.9013 47.1437C28.9013 48.6169 29.8523 49.64 31.2581 49.64C32.0437 49.64 32.6639 49.3126 32.9947 48.8216L34.4004 50.1311C33.6562 50.9496 32.5812 51.4816 31.1754 51.4816C28.6119 51.4407 26.71 49.6809 26.71 47.1437Z" fill="#394854"/>
<path d="M41.8429 47.1027C41.8429 45.6703 40.892 44.6063 39.4862 44.6063C38.0804 44.6063 37.1294 45.6703 37.1294 47.1027C37.1294 48.5759 38.0804 49.6399 39.4862 49.6399C40.8506 49.6399 41.8429 48.5759 41.8429 47.1027ZM34.9794 47.1027C34.9794 44.4835 36.8813 42.8057 39.4862 42.8057C42.091 42.8057 43.993 44.4426 43.993 47.1027C43.993 49.6808 42.091 51.4406 39.4862 51.4406C36.8813 51.4406 34.9794 49.6808 34.9794 47.1027Z" fill="#394854"/>
<path d="M49.6574 46.6934V44.6063H48.7064C47.9208 44.6063 47.3006 44.8518 47.3006 45.6294C47.3006 46.4069 47.9622 46.6934 48.7891 46.6934H49.6574ZM47.0112 47.8802C45.9775 47.5119 45.3573 46.6934 45.3573 45.5475C45.3573 43.665 46.8458 43.0103 48.6237 43.0103H51.6834V51.195H49.6987V48.1666H48.9958L47.2593 51.195H44.9438L47.0112 47.8802Z" fill="#394854"/>
<path d="M55.6113 46.8981L52.9238 43.0513H55.3632L56.8931 45.5885L58.4229 43.0513H60.7383L58.1335 46.8981L61.1104 51.236H58.6296L56.8517 48.3304L55.1152 51.236H52.717L55.6113 46.8981Z" fill="#394854"/>
<path d="M66.5682 48.044L65.5345 45.2202L64.5009 48.044H66.5682ZM64.6249 43.0513H66.5682L70 51.236H67.7673L67.1057 49.64H63.8807L63.2605 51.236H61.0691L64.6249 43.0513Z" fill="#394854"/>
<path d="M13.9752 58.848H11.4531V61.0578H9.9646V55.2876H11.4531V57.4975H13.9752V55.2876H15.4637V61.0578H13.9752V58.848Z" fill="#394854"/>
<path d="M18.234 57.6609H21.0869C21.0869 56.9652 20.5907 56.3923 19.7638 56.3923C18.8955 56.3923 18.3994 56.8833 18.234 57.6609ZM22.1206 60.4846C21.5417 60.9757 20.7148 61.2213 19.8878 61.2213C18.0272 61.2213 16.7455 60.0345 16.7455 58.1929C16.7455 56.515 17.9032 55.1646 19.8051 55.1646C21.2936 55.1646 22.5754 56.2286 22.5754 57.8246C22.5754 58.1929 22.534 58.3975 22.4927 58.6021H18.3167C18.4407 59.4615 19.1436 59.9526 20.0532 59.9526C20.7561 59.9526 21.3763 59.7071 21.7071 59.4206L22.1206 60.4846Z" fill="#394854"/>
<path d="M28.1157 56.5564V59.8303H28.1571C29.2321 59.8303 29.7283 59.1346 29.7283 58.1933C29.7283 57.3339 29.2321 56.5564 28.1984 56.5564H28.1157ZM26.5859 59.8303L26.6273 56.5564H26.5446C25.4282 56.5564 25.0147 57.293 25.0147 58.1933C24.9734 59.1346 25.5109 59.8303 26.5859 59.8303ZM26.6273 61.2217H26.5446C24.5186 61.2217 23.4022 59.9121 23.4022 58.1933C23.4022 56.6382 24.5186 55.165 26.5446 55.165H26.6273V52.0957H28.1157V55.165H28.1984C30.1831 55.165 31.3408 56.5155 31.3408 58.1933C31.3408 59.9121 30.3071 61.2217 28.1984 61.2217H28.1157V63.6362H26.6273V61.2217Z" fill="#394854"/>
<path d="M31.7957 55.2876H37.088V56.7608H35.1861V61.0578H33.6976V56.7608H31.7957V55.2876Z" fill="#394854"/>
<path d="M39.1139 57.6609H41.9669C41.9669 56.9652 41.4707 56.3923 40.6438 56.3923C39.7341 56.3923 39.238 56.8833 39.1139 57.6609ZM42.9592 60.4846C42.3803 60.9757 41.5534 61.2213 40.7265 61.2213C38.8659 61.2213 37.5841 60.0345 37.5841 58.1929C37.5841 56.515 38.7418 55.1646 40.6438 55.1646C42.1322 55.1646 43.414 56.2286 43.414 57.8246C43.414 58.1929 43.3726 58.3975 43.3313 58.6021H39.1553C39.2793 59.4615 39.9822 59.9526 40.8918 59.9526C41.5947 59.9526 42.2149 59.7071 42.5457 59.4206L42.9592 60.4846Z" fill="#394854"/>
<path d="M44.6545 55.2876H48.5411V56.679H46.143V61.0578H44.6545V55.2876Z" fill="#394854"/>
<path d="M52.5517 59.3797V58.8068C52.3037 58.6021 51.9729 58.5203 51.5181 58.5203C51.0219 58.5203 50.5671 58.7658 50.5671 59.216C50.5671 59.6662 50.9392 59.9117 51.394 59.9117C52.0556 59.9117 52.345 59.6252 52.5517 59.3797ZM49.5334 55.6966C50.0296 55.4101 50.8152 55.1646 51.6008 55.1646C53.3373 55.1646 53.9162 56.0239 53.9162 57.579V61.0985H52.6344V60.4437C52.3037 60.8939 51.6835 61.1803 50.8979 61.1803C49.8229 61.1803 49.0786 60.5256 49.0786 59.4206C49.0786 58.152 50.0296 57.5381 51.1873 57.5381C51.7248 57.5381 52.221 57.7018 52.5104 57.9064C52.5517 56.9652 52.3037 56.4332 51.4354 56.4332C50.7738 56.4332 50.319 56.6378 49.9055 56.8424L49.5334 55.6966Z" fill="#394854"/>
<path d="M54.9911 60.2391L55.7353 59.2978C56.0661 59.6662 56.8103 59.9935 57.3892 59.9935C58.1748 59.9935 58.5882 59.7071 58.5882 59.2978C58.5882 58.9295 58.2988 58.6431 57.72 58.6431H56.645V57.7018H57.6786C58.1748 57.7018 58.4642 57.3744 58.4642 57.0061C58.4642 56.5969 58.0921 56.3923 57.4305 56.3923C56.769 56.3923 56.1901 56.7606 55.8594 57.047L55.2392 56.1467C55.7767 55.5329 56.645 55.1646 57.72 55.1646C59.2498 55.1646 60.0354 55.8193 60.0354 56.8015C60.0354 57.3335 59.6633 57.8655 58.9604 58.0701V58.1111C59.7873 58.2748 60.2008 58.8068 60.2008 59.4615C60.2008 60.5256 59.1258 61.2213 57.5546 61.2213C56.4796 61.2213 55.4046 60.7711 54.9911 60.2391Z" fill="#394854"/>
<path d="M36.964 21.4025L34.5246 23.817L32.4572 21.7299L28.3225 17.6375L24.1879 13.5452L19.5984 18.0877L23.7331 22.1801L21.7898 24.1035L17.6551 20.0111L13.0656 24.5536L17.2003 28.646L12.9829 32.8202L17.1176 36.9126L27.8677 26.2724L29.9764 28.3186L25.9658 32.3291L30.5139 36.8308L34.5246 32.8612L38.9073 37.1581L43.4554 32.6565L39.114 28.3186L41.5535 25.9451L52.3036 36.5852L56.4383 32.4928L52.2209 28.3186L56.3556 24.2263L51.7661 19.6837L47.6315 23.7761L45.6882 21.8527L49.8228 17.7603L45.2334 13.2178L41.0987 17.3101L36.964 21.4025Z" fill="#394854"/>
<path d="M34.8623 0.0162035L28.6642 6.15088L34.8623 12.2856L41.0604 6.15088L34.8623 0.0162035Z" fill="#394854"/>
</g>
<defs>
<clipPath id="clip0">
<rect width="70" height="63.6364" fill="white"/>
</clipPath>
</defs>
</svg>
