<svg width="75" height="36" viewBox="0 0 75 36" fill="none" xmlns="http://www.w3.org/2000/svg">
<path fill-rule="evenodd" clip-rule="evenodd" d="M50.8156 30.2041C51.0986 30.2041 51.1991 30.2665 51.1991 30.5884V32.3329C51.1991 32.651 51.0986 32.7311 50.8156 32.7311H50.6185V30.2041H50.8156ZM71.1188 31.8919C71.4018 31.8919 71.4886 31.9622 71.4886 32.2725V32.9282C71.4886 33.2362 71.4018 33.3085 71.1188 33.3085H70.8358V31.8919H71.1188ZM48.8003 30.6C48.8003 30.2839 48.9047 30.2041 49.1829 30.2041H49.3859V32.7311H49.1829C48.9047 32.7311 48.8003 32.6568 48.8003 32.3387V30.6ZM25.0003 35.8219H75V27.4878H25.0003V35.8219ZM30.4294 28.8401H29.1608V30.9337H28.5087V28.8401H27.2411V34.2667H28.5087V31.8919H29.1608V34.2667H30.4294V28.8401ZM40.9391 28.8361H37.8973V34.2707H40.9391V33.2403H39.205V31.9622H40.7566V30.9337H39.205V29.8645H40.9391V28.8361ZM52.4277 30.6372C52.4277 29.5288 51.8882 29.2479 50.6185 29.2479V28.8401H49.3859V29.2479C48.1134 29.2479 47.5696 29.5288 47.5696 30.6372V32.3329C47.5696 33.4336 48.1366 33.7301 49.3859 33.7301V34.2667H50.6185V33.7301C51.8678 33.7301 52.4277 33.4336 52.4277 32.3329V30.6372ZM62.1773 28.8361H58.9852V29.8645H60.0147V34.2707H61.2199V29.8645H62.1773V28.8361ZM72.7545 32.3095C72.7545 31.2244 72.2938 30.9337 71.0495 30.9337H70.8358V28.8401H69.5679V34.2667H70.8358C72.2137 34.2667 72.7545 34.056 72.7545 32.8678V32.3095ZM21.6559 23.3238V31.8743C19.3741 34.2999 16.1271 35.8219 12.5211 35.8219C5.60858 35.8219 0 30.2391 0 23.355C0 16.4747 5.60858 10.8921 12.5211 10.8921V20.2642C10.7225 20.2642 8.92283 20.947 7.55071 22.313C7.22291 22.6369 6.93589 22.9862 6.68715 23.355C4.84548 26.077 5.13149 29.8041 7.55071 32.2118C8.92283 33.574 10.7225 34.2609 12.5211 34.2609C14.3109 34.2609 16.1029 33.5838 17.4741 32.2274C17.4808 32.2196 17.4879 32.2159 17.4955 32.2101V32.2061L17.5131 32.1925C18.8882 30.8245 18.8882 28.602 17.5131 27.2381C16.1379 25.8681 13.9118 25.8681 12.5377 27.2381C12.5289 27.2419 12.5251 27.2459 12.5211 27.2517V23.3238H21.6559ZM20.0985 6.4625C20.8538 9.78185 20.8399 11.8228 20.5121 14.1508C19.9177 18.3422 18.0136 21.546 17.1891 22.6213C16.6228 21.8914 15.7565 20.4026 15.1787 19.0135C15.1787 19.0135 14.0855 16.3694 13.7968 13.7936C13.5077 11.216 13.6319 8.59738 14.474 5.64878C15.2459 2.99919 16.7605 0.618413 17.1755 0C17.4358 0.438955 19.3399 3.14165 20.0985 6.4625ZM17.1755 21.796C17.5619 21.0797 18.2256 19.5091 18.1669 17.5129C18.0861 15.4757 17.397 13.9829 17.1891 13.6257C16.9519 13.9829 16.1535 15.6941 16.1671 17.6944C16.224 19.7567 16.8036 21.0955 17.1755 21.796ZM19.8797 12.0979C19.9031 10.8314 19.781 8.67918 19.1624 6.43331C18.5418 4.18744 17.3383 2.05081 17.1609 1.77344C16.9841 2.05081 16.0314 3.78548 15.1903 6.50152C14.9687 7.31524 14.5697 9.08138 14.5004 10.8022C14.4194 12.89 14.7024 14.9605 14.8167 15.5459C14.8167 14.8553 14.8303 12.5525 15.2578 10.652C15.686 8.74739 16.5 6.55613 17.1609 5.44213C17.8781 6.61478 18.7769 9.14557 19.0911 10.6638C19.4104 12.1818 19.576 14.1233 19.5078 15.4991C19.6992 14.701 19.8505 13.3642 19.8797 12.0979ZM71.8761 10.8276H75V23.3258H72.5954V15.4873H72.5123L71.2749 23.3258H69.3542L68.1197 15.4873H68.0377V23.3258H65.632V10.8276H68.7512L70.3086 19.6105L71.8761 10.8276ZM54.7142 17.7002C54.9758 17.7002 55.1624 17.4699 55.1624 17.0757V13.0033C55.1624 12.6111 54.9758 12.3791 54.7142 12.3791H54.082V17.7002H54.7142ZM51.6822 10.8276H55.4542C57.1367 10.8276 57.4031 12.1858 57.4031 13.0599V16.8416C57.4031 17.7195 57.1367 19.0777 55.4542 19.0777H54.082V23.3258H51.6822V10.8276ZM44.3871 10.8276H49.944V23.3258H47.7033V12.3791H46.626V23.3258H44.3871V10.8276ZM39.6528 18.9491V21.3004C39.6528 21.6243 39.8893 21.7139 40.0287 21.7139C40.2493 21.7139 40.4034 21.5168 40.4034 21.3004V18.3948C40.4034 18.0044 40.3369 17.5753 39.4431 17.5753H38.4673V16.2016H39.4774C40.1632 16.2016 40.4034 16.0357 40.4034 15.2746V12.7886C40.4034 12.5741 40.2493 12.3791 40.0287 12.3791C39.8893 12.3791 39.6528 12.4687 39.6528 12.7886V14.8258H37.2472V13.0599C37.2472 12.1858 37.3537 10.8276 39.0322 10.8276H41.024C42.7045 10.8276 42.8082 12.1858 42.8082 13.0599V15.0619C42.8082 16.4163 41.8966 16.7888 41.1753 16.7538V16.8804C42.7876 16.8416 42.8082 18.1293 42.8082 18.5763V21.0915C42.8082 21.9676 42.7045 23.3258 41.024 23.3258H39.0322C37.3537 23.3258 37.2472 21.9676 37.2472 21.0915V18.9491H39.6528ZM33.5523 18.6289L33.1404 12.3791H33.0077L32.5921 18.6289H33.5523ZM31.1867 10.8276H34.9607L36.2137 23.3258H33.8637L33.6412 20.0027H32.5092L32.2819 23.3258H29.9367L31.1867 10.8276ZM25.0003 10.8276H29.5825V12.3791H27.4012V23.3258H25.0003V10.8276ZM62.4273 10.8276C64.1096 10.8276 64.2151 12.1858 64.2151 13.0599V21.0915C64.2151 21.9676 64.1096 23.3258 62.4273 23.3258H60.4401C58.7606 23.3258 58.6591 21.9676 58.6591 21.0915V13.0599C58.6591 12.1858 58.7606 10.8276 60.4401 10.8276H62.4273ZM61.4366 21.7804C61.7264 21.7804 61.9673 21.5579 61.9673 21.2828L61.9666 21.2672V12.89V12.853L61.9626 12.814C61.9374 12.5701 61.709 12.3751 61.4326 12.3751C61.1574 12.3751 60.9369 12.5701 60.9046 12.814V12.853V12.89V21.2672L60.9009 21.2828C60.9009 21.5579 61.1408 21.7804 61.4366 21.7804Z" fill="#394854"/>
</svg>
