<svg width="92" height="41" viewBox="0 0 92 41" fill="none" xmlns="http://www.w3.org/2000/svg">
<g clip-path="url(#clip07867)">
<path d="M3.34668 19.8587C3.34668 10.1931 20.612 2.09502 43.7747 0C18.9975 1.48865 0.0268936 9.84145 0.0268936 19.9163C0.0268936 30.5097 20.9997 39.196 47.6428 40.0055C22.5566 38.5047 3.34668 30.0549 3.34668 19.8587Z" fill="#394854"/>
<path d="M54.2881 29.9003H50.6291L53.4097 14.1589H57.0718L56.0359 19.9831H57.9865L59.0164 14.1467H62.6663L59.8887 29.8882H56.2388L57.5655 22.3631H55.6179L54.2881 29.9003Z" fill="#394854"/>
<path d="M65.344 22.9361C65.3482 22.8609 65.3673 22.7873 65.4001 22.7196C65.4329 22.6518 65.4788 22.5912 65.5351 22.5413C65.5914 22.4915 65.6571 22.4532 65.7282 22.4289C65.7994 22.4045 65.8747 22.3945 65.9498 22.3994C66.2951 22.3994 66.4374 22.5783 66.3738 22.9361L66.1527 24.1488H65.1137L65.344 22.9361ZM68.8122 23.2968C68.8407 23.1092 68.8559 22.9197 68.8576 22.7299C68.8804 22.4238 68.8208 22.1172 68.6849 21.8421C68.5491 21.5669 68.342 21.3332 68.0852 21.1654C67.5212 20.8604 66.8835 20.7187 66.2436 20.7561C65.4098 20.7165 64.5858 20.9495 63.8961 21.4201C63.596 21.6426 63.3436 21.923 63.1537 22.2449C62.9638 22.5667 62.8403 22.9234 62.7905 23.2938L62.0363 27.596C62.006 27.7468 61.9897 27.9001 61.9878 28.0538C61.9738 28.3473 62.038 28.6392 62.1737 28.8997C62.3094 29.1602 62.5118 29.3799 62.7602 29.5364C63.322 29.8679 63.9687 30.0271 64.62 29.9942C65.4053 30.0306 66.185 29.8458 66.8706 29.4606C67.1836 29.2621 67.4499 28.998 67.6512 28.6866C67.8525 28.3752 67.9841 28.0238 68.0367 27.6567L68.273 26.3348H65.8013L65.5984 27.4899C65.5646 27.7181 65.4842 27.9369 65.3621 28.1327C65.3134 28.2034 65.2476 28.2605 65.1707 28.2987C65.0939 28.3368 65.0086 28.3548 64.9229 28.351C64.6624 28.351 64.5322 28.1691 64.5322 27.7992V27.496L64.8351 25.6769H68.3699L68.8122 23.2968Z" fill="#394854"/>
<path d="M76.3211 22.8178C76.5634 22.8178 76.6876 22.9452 76.6876 23.1999V23.2908C76.6875 23.3329 76.6814 23.3748 76.6694 23.4151L76.003 27.3262C75.9212 27.7325 75.7274 27.9326 75.4336 27.9326C75.3745 27.9407 75.3144 27.935 75.2579 27.9159C75.2014 27.8968 75.1502 27.8648 75.1082 27.8225C75.0662 27.7801 75.0346 27.7286 75.0159 27.672C74.9972 27.6153 74.9919 27.5551 75.0004 27.496V27.4263C74.9958 27.3921 74.9958 27.3574 75.0004 27.3232L75.6668 23.4121C75.7668 23.0149 75.9939 22.8178 76.3211 22.8178ZM73.4738 22.0508C73.4935 21.8717 73.4768 21.6905 73.4247 21.5181C73.3727 21.3456 73.2863 21.1855 73.1709 21.0472C72.8832 20.8213 72.5206 20.7129 72.1562 20.744C71.86 20.7354 71.5659 20.7965 71.2976 20.9223C71.0293 21.0482 70.7943 21.2353 70.6114 21.4687C70.2674 21.9316 70.0455 22.4738 69.9662 23.0452L69.0999 28.0266C69.0999 28.0903 69.0757 28.1782 69.0605 28.2873C69.0454 28.3877 69.0373 28.489 69.0363 28.5905C69.016 28.7833 69.0399 28.9782 69.1061 29.1603C69.1723 29.3425 69.2791 29.5072 69.4183 29.6419C69.5576 29.7766 69.7257 29.8778 69.9098 29.9378C70.094 29.9978 70.2893 30.0151 70.4811 29.9882C70.8723 29.9997 71.2563 29.8825 71.5746 29.6547C71.8982 29.3993 72.1541 29.0682 72.3197 28.6906L71.7533 31.8922H74.1947L74.8005 28.7451C74.7836 28.9208 74.8067 29.098 74.8681 29.2634C74.9295 29.4288 75.0275 29.5782 75.1549 29.7002C75.4581 29.9208 75.8289 30.0281 76.2029 30.0034C76.4987 30.0123 76.7924 29.9513 77.0603 29.8254C77.3281 29.6995 77.5626 29.5122 77.7447 29.2788C78.0776 28.8339 78.2942 28.3128 78.3747 27.7628L79.2592 22.7784C79.2592 22.7178 79.2804 22.6268 79.2986 22.5116C79.3106 22.411 79.3176 22.3098 79.3198 22.2084C79.3439 21.8273 79.2202 21.4515 78.9745 21.1594C78.8266 21.0252 78.6525 20.9231 78.4633 20.8594C78.2741 20.7958 78.0738 20.772 77.8749 20.7895C77.464 20.7803 77.0612 20.9048 76.7269 21.1442C76.3866 21.3987 76.1166 21.7357 75.9424 22.1235L76.5482 18.6824H74.1069L73.4738 22.0508ZM72.9255 22.8178C73.1648 22.8178 73.286 22.9452 73.286 23.1999C73.2809 23.2722 73.2707 23.3442 73.2557 23.4151L72.5863 27.3262C72.5015 27.7325 72.3137 27.9326 72.029 27.9326C71.7442 27.9326 71.6625 27.8053 71.6625 27.5445V27.4505C71.6642 27.4075 71.6745 27.3652 71.6927 27.3262L72.3591 23.4151C72.4439 23.0149 72.6317 22.8178 72.9255 22.8178Z" fill="#394854"/>
<path d="M85.193 22.4935H83.9178L82.6093 29.9004H80.1225L81.4219 22.4935H80.1618L80.4496 20.8533H85.4777L85.193 22.4935Z" fill="#394854"/>
<path d="M88.6733 25.8921C88.7459 25.9539 88.8019 26.0328 88.8363 26.1218C88.8706 26.2107 88.8823 26.3069 88.8702 26.4015C88.869 26.6132 88.8477 26.8244 88.8066 27.0321C88.7712 27.4092 88.641 27.7711 88.428 28.0841C88.1626 28.2674 87.839 28.3463 87.5193 28.3055L87.9736 25.7587C88.2148 25.7359 88.4574 25.7822 88.6733 25.8921ZM91.4146 25.8345C91.4146 25.1291 91.1732 24.6703 90.6906 24.458C90.3029 24.2903 89.4861 24.2064 88.2402 24.2064L88.846 20.8501H86.3561L84.778 29.9002H87.2618C88.7127 29.9002 89.685 29.7304 90.1999 29.3878C90.7148 29.0452 91.0692 28.2661 91.2934 27.0533C91.3646 26.6507 91.4051 26.2432 91.4146 25.8345Z" fill="#394854"/>
<path d="M69.9904 15.6264C69.3422 13.0068 68.2064 8.42871 68.2064 8.42871C68.2064 8.42871 66.0255 11.973 64.3292 14.7471C62.7663 17.3 64.9017 19.4253 66.4677 19.6678C68.0337 19.9104 70.7113 18.5309 69.9904 15.6264ZM67.4552 16.0417C67.2982 16.0142 67.1504 15.9481 67.0251 15.8495C66.8998 15.7509 66.8008 15.6229 66.7369 15.4767C66.673 15.3305 66.6463 15.1708 66.659 15.0118C66.6718 14.8527 66.7236 14.6993 66.81 14.5652L67.9761 12.6642C67.9761 12.6642 68.3154 14.0407 68.5123 14.829C68.554 14.9826 68.5572 15.1442 68.5215 15.2994C68.4859 15.4546 68.4125 15.5985 68.3079 15.7185C68.2034 15.8385 68.0708 15.9308 67.922 15.9871C67.7733 16.0435 67.6129 16.0623 67.4552 16.0417Z" fill="#394854"/>
<path d="M22.2352 13.81C22.9763 13.81 23.3478 14.1446 23.3498 14.8136C23.3391 15.0586 23.3128 15.3026 23.2711 15.5443C23.2196 15.8869 23.1802 16.1506 23.1499 16.3629C22.9702 17.3513 22.7683 18.0203 22.5441 18.37C22.323 18.7186 21.905 18.8945 21.2992 18.8945H20.7176L21.6536 13.81H22.2352ZM20.3299 21.1957H21.6778C22.7643 21.2202 23.8354 20.9364 24.7674 20.3771C25.2381 20.105 25.6427 19.732 25.9522 19.2849C26.2617 18.8377 26.4685 18.3275 26.5576 17.7909L27.0634 14.9197C27.1058 14.656 27.1281 14.3894 27.13 14.1223C27.13 13.137 26.7484 12.4427 25.982 12.0455C25.3338 11.7059 24.2979 11.5361 22.8682 11.5361H18.3883L15.6047 27.3019H19.2698L20.3299 21.1957Z" fill="#394854"/>
<path d="M27.8661 15.9749H30.4832L30.2075 22.46L32.2582 15.9749H34.439L30.6043 25.8587C30.2005 26.9179 29.4038 27.4474 28.2144 27.4474H26.1335L26.4364 25.7314H27.7843C28.0872 25.7314 28.2599 25.6465 28.2932 25.4707V25.0614L27.8661 15.9749Z" fill="#394854"/>
<path d="M39.2582 20.2347L39.5308 18.6005V18.3792C39.5308 17.9881 39.3491 17.791 38.9886 17.791C38.8859 17.7868 38.7836 17.8052 38.6888 17.845C38.5941 17.8848 38.5092 17.9451 38.4404 18.0214C38.2972 18.1792 38.209 18.3792 38.189 18.5914L37.1288 24.5581V24.7977C37.1288 25.1706 37.3075 25.3586 37.6619 25.3586C37.7633 25.3649 37.8648 25.3487 37.9591 25.3109C38.0534 25.2731 38.1381 25.2149 38.2071 25.1403C38.3404 24.9745 38.4253 24.7752 38.4525 24.5642L38.7705 22.166H41.8965L41.5936 24.4581C41.5274 24.9213 41.3618 25.3646 41.1083 25.7577C40.8547 26.1507 40.5191 26.4841 40.1245 26.735C39.4097 27.1837 38.4565 27.4081 37.2651 27.4081C36.1929 27.4081 35.3781 27.208 34.8147 26.8017C34.5332 26.5935 34.3085 26.3178 34.1614 25.9999C34.0142 25.682 33.9493 25.3322 33.9726 24.9826C33.9734 24.8498 33.9826 24.7171 33.9999 24.5854C34.0211 24.4369 34.0362 24.3247 34.0514 24.2459L34.9843 18.928C35.1334 18.0055 35.6408 17.1794 36.3958 16.6298C37.2439 16.0184 38.2712 15.7069 39.3158 15.7445C40.3375 15.7445 41.119 15.9173 41.6602 16.263C42.3114 16.6783 42.6355 17.3362 42.6355 18.2428C42.6328 18.4834 42.6126 18.7236 42.575 18.9613L42.3962 20.2377L39.2582 20.2347Z" fill="#394854"/>
<path d="M47.9999 20.2863L48.2725 18.6521V18.4308C48.2725 18.0367 48.0938 17.8426 47.7334 17.8426C47.6302 17.8383 47.5274 17.8567 47.4322 17.8966C47.3369 17.9364 47.2515 17.9966 47.1821 18.073C47.04 18.2315 46.9519 18.4311 46.9307 18.643L45.8705 24.6097V24.8341C45.8705 25.207 46.0492 25.395 46.4067 25.395C46.5076 25.4016 46.6087 25.3854 46.7026 25.3476C46.7964 25.3098 46.8806 25.2514 46.9488 25.1767C47.0826 25.011 47.1685 24.8118 47.1972 24.6006L47.5001 22.2024H50.626L50.3231 24.4945C50.2574 24.9578 50.092 25.4013 49.8383 25.7944C49.5847 26.1875 49.2489 26.5209 48.8541 26.7715C48.1392 27.2202 47.1881 27.4445 45.9947 27.4445C44.9265 27.4445 44.1097 27.2424 43.5442 26.8382C43.2632 26.6296 43.0388 26.3538 42.8917 26.036C42.7446 25.7182 42.6794 25.3685 42.7022 25.019C42.7027 24.8851 42.7129 24.7513 42.7325 24.6188C42.7507 24.4733 42.7688 24.3611 42.7809 24.2823L43.7139 18.9644C43.8621 18.0416 44.3696 17.2152 45.1254 16.6662C45.9744 16.0544 47.0028 15.7429 48.0484 15.7809C49.0661 15.7809 49.8506 15.9538 50.3928 16.2994C51.041 16.7036 51.3651 17.3636 51.3651 18.2792C51.3624 18.5199 51.3422 18.76 51.3045 18.9978L51.1561 20.2863H47.9999Z" fill="#394854"/>
<path d="M28.6385 14.9015H28.0327L28.5143 11.8696H29.1201L28.9354 13.0157L29.8683 11.8696H30.6104L29.6139 13.043L30.1682 14.8924H29.4442L29.0929 13.616L28.79 13.9556L28.6385 14.9015Z" fill="#394854"/>
<path d="M32.658 12.655C32.7217 12.7838 32.7509 12.9269 32.7428 13.0704C32.7432 13.1781 32.7341 13.2857 32.7156 13.3918C32.6856 13.6042 32.6179 13.8096 32.5157 13.9982C32.4682 14.0885 32.3973 14.1643 32.3104 14.2177C32.2236 14.2711 32.1239 14.3 32.0219 14.3014C31.9537 14.3057 31.8855 14.291 31.8251 14.2589C31.7646 14.2268 31.7143 14.1785 31.6797 14.1194C31.617 13.9946 31.5878 13.8557 31.5948 13.7162C31.5918 13.6596 31.5918 13.603 31.5948 13.5464C31.5948 13.4918 31.5948 13.4373 31.6161 13.3827C31.6461 13.1703 31.7138 12.9649 31.816 12.7763C31.8629 12.6856 31.9336 12.6093 32.0207 12.5559C32.1077 12.5025 32.2076 12.4739 32.3097 12.4731C32.379 12.4672 32.4486 12.4812 32.5103 12.5134C32.572 12.5456 32.6232 12.5947 32.658 12.655ZM32.7913 14.5954C33.0921 14.2568 33.2805 13.8331 33.3305 13.3827C33.3466 13.2917 33.3557 13.225 33.3577 13.1826C33.3577 13.1371 33.3577 13.0643 33.3577 12.9582C33.3793 12.6414 33.2821 12.3279 33.0851 12.079C33.0018 11.9846 32.8984 11.91 32.7826 11.8607C32.6668 11.8114 32.5414 11.7886 32.4157 11.794C32.252 11.794 32.0901 11.8283 31.9404 11.8946C31.7907 11.9609 31.6565 12.0578 31.5464 12.179C31.2449 12.5172 31.0564 12.9412 31.0072 13.3918C30.9836 13.5341 30.9704 13.678 30.9678 13.8223C30.9463 14.1391 31.0435 14.4526 31.2405 14.7016C31.3249 14.7942 31.4286 14.8672 31.5442 14.9154C31.6599 14.9635 31.7847 14.9858 31.9099 14.9805C32.0754 14.981 32.2393 14.9471 32.391 14.8808C32.5428 14.8145 32.6791 14.7173 32.7913 14.5954Z" fill="#394854"/>
<path d="M36.526 12.8398L35.6173 14.9015H35.1115L34.8752 12.8398H34.8571C34.8571 12.8853 34.8571 12.9369 34.8419 12.9945C34.8268 13.0521 34.8419 13.1218 34.8177 13.1976L34.5451 14.9015H33.9908L34.4724 11.8696H35.2841L35.5083 13.9252H35.5265L36.4079 11.8696H37.2227L36.7411 14.9015H36.1838L36.4564 13.1976C36.4715 13.0975 36.4867 13.0187 36.5018 12.9581C36.507 12.9179 36.5162 12.8783 36.5291 12.8398H36.526Z" fill="#394854"/>
<path d="M39.8489 14.9015H39.2431L39.6156 12.5215H38.7706L38.3919 14.9015H37.7861L38.2677 11.8696H40.3032L39.8489 14.9015Z" fill="#394854"/>
<path d="M42.3296 13.8161C42.3063 13.9833 42.2248 14.1369 42.0994 14.2497C41.9915 14.3509 41.8504 14.4091 41.7026 14.4134C41.6729 14.4143 41.6434 14.4091 41.6158 14.3982C41.5882 14.3872 41.5631 14.3707 41.5421 14.3497C41.5184 14.3219 41.5006 14.2895 41.4896 14.2546C41.4787 14.2197 41.4749 14.183 41.4784 14.1466C41.4784 14.1284 41.4784 14.0951 41.4784 14.0496C41.4832 13.9855 41.5007 13.9231 41.5298 13.8658C41.559 13.8085 41.5991 13.7577 41.6481 13.7161C41.7394 13.656 41.8428 13.6167 41.951 13.6009C42.0545 13.5842 42.156 13.5567 42.2539 13.519C42.3077 13.4977 42.3578 13.4681 42.4023 13.4311L42.3296 13.8161ZM43.0899 12.6761C43.0899 12.6549 43.0899 12.6216 43.108 12.5761V12.4851C43.1128 12.399 43.1002 12.3127 43.0711 12.2315C43.0419 12.1502 42.9968 12.0757 42.9384 12.0122C42.8566 11.9384 42.7608 11.8819 42.6568 11.846C42.5527 11.81 42.4425 11.7954 42.3326 11.803C42.0901 11.7907 41.8498 11.8543 41.645 11.9849C41.3793 12.2039 41.2044 12.5141 41.1543 12.855H41.7238C41.7441 12.7545 41.7854 12.6595 41.845 12.5761C41.8808 12.5303 41.9269 12.4936 41.9795 12.4689C42.0321 12.4441 42.0898 12.4321 42.1479 12.4336C42.2321 12.4325 42.3157 12.449 42.3932 12.4821C42.4292 12.5028 42.4582 12.5338 42.4765 12.571C42.4949 12.6083 42.5017 12.6501 42.4962 12.6913C42.4962 12.7095 42.4962 12.7489 42.481 12.8126C42.4765 12.8433 42.4658 12.8728 42.4497 12.8994C42.4335 12.9259 42.4123 12.949 42.3871 12.9672C42.3432 12.9985 42.2922 13.0183 42.2387 13.0248L41.6844 13.134C41.4792 13.1715 41.2931 13.2785 41.1574 13.4371C41.0018 13.6274 40.9059 13.8595 40.8817 14.1042C40.8724 14.1481 40.8663 14.1927 40.8636 14.2376V14.3285C40.8507 14.5121 40.9093 14.6935 41.0271 14.8348C41.0786 14.8862 41.1402 14.9262 41.208 14.9523C41.2758 14.9784 41.3483 14.99 41.4209 14.9864C41.5929 14.9881 41.7612 14.9362 41.9025 14.8379C42.0134 14.7473 42.1149 14.6457 42.2054 14.5347V14.7227C42.2054 14.7378 42.2054 14.7621 42.2054 14.7985C42.2054 14.8348 42.2054 14.8621 42.2054 14.8955H42.8445L42.8627 14.7772C42.8337 14.764 42.811 14.7401 42.7991 14.7105C42.7857 14.6643 42.7806 14.6161 42.7839 14.568C42.7854 14.4798 42.7925 14.3916 42.8051 14.3043L43.0899 12.6761Z" fill="#394854"/>
<path d="M45.807 14.9015H45.2012L45.389 13.6888H44.5439L44.35 14.9015H43.7442L44.2258 11.8696H44.8316L44.6378 13.0612H45.4889L45.6767 11.8696H46.2825L45.807 14.9015Z" fill="#394854"/>
<path d="M48.9056 14.9015H48.2998L48.6027 13.0824L47.5062 14.9015H46.867L47.3487 11.8696H47.9545L47.6516 13.6888L48.745 11.8696H49.3811L48.9056 14.9015Z" fill="#394854"/>
<path d="M51.0531 13.1855C51.0119 13.1916 50.9699 13.188 50.9303 13.175C50.8908 13.1619 50.8548 13.1397 50.8254 13.1103C50.7959 13.0808 50.7738 13.0448 50.7607 13.0052C50.7477 12.9657 50.7441 12.9235 50.7502 12.8823C50.7502 12.8581 50.7502 12.8247 50.7502 12.7792C50.7666 12.6736 50.8177 12.5765 50.8956 12.5033C50.9692 12.4364 51.0658 12.4005 51.1652 12.4033H51.559L51.4287 13.1885L51.0531 13.1855ZM50.4837 14.9015L51.2379 13.6888H51.3621L51.1682 14.9015H51.774L52.2556 11.8697H51.253C50.9911 11.8574 50.7327 11.9344 50.52 12.088C50.3235 12.2576 50.1998 12.4965 50.1747 12.755C50.1672 12.7971 50.1621 12.8396 50.1595 12.8823V12.9702C50.1523 13.1611 50.2064 13.3492 50.314 13.5069C50.3442 13.556 50.3853 13.5974 50.4342 13.628C50.4831 13.6585 50.5384 13.6772 50.5957 13.6827L49.784 14.8955L50.4837 14.9015Z" fill="#394854"/>
</g>
<defs>
<clipPath id="clip07867">
<rect width="91.4412" height="40.0055" fill="white"/>
</clipPath>
</defs>
</svg>
