<svg width="1137" height="226" viewBox="0 0 1137 226" fill="none" xmlns="http://www.w3.org/2000/svg">
<path opacity="0.3" d="M95.9389 128.365L95.7492 129.347L95.7537 129.347L95.9389 128.365ZM38.3171 149.973L39.2917 149.749L39.1132 148.973H38.3171V149.973ZM0.802945 149.973V148.973H-0.302043L-0.192093 150.072L0.802945 149.973ZM104.342 94.4519L104.154 95.4341L104.156 95.4345L104.342 94.4519ZM77.6319 89.3499L77.8196 88.3677L77.8191 88.3676L77.6319 89.3499ZM137.354 65.3409L136.382 65.5755L136.567 66.3409H137.354V65.3409ZM174.268 65.3409V66.3409H175.479L175.25 65.1523L174.268 65.3409ZM69.5289 123.263L69.3246 124.242L69.3319 124.243L69.3392 124.245L69.5289 123.263ZM95.7537 129.347C106.095 131.296 117.123 134.048 125.552 139.053C133.931 144.029 139.656 151.171 139.656 161.977H141.656C141.656 150.275 135.376 142.561 126.573 137.334C117.821 132.135 106.491 129.335 96.124 127.382L95.7537 129.347ZM139.656 161.977C139.656 172.1 134.688 179.983 126.524 185.377C118.329 190.792 106.909 193.69 94.1382 193.69V195.69C107.177 195.69 119.015 192.736 127.627 187.046C136.27 181.335 141.656 172.863 141.656 161.977H139.656ZM94.1382 193.69C79.296 193.69 67.3049 190.055 58.1843 182.803C49.0638 175.55 42.7062 164.594 39.2917 149.749L37.3425 150.197C40.8306 165.363 47.3779 176.765 56.9395 184.368C66.5009 191.971 78.969 195.69 94.1382 195.69V193.69ZM38.3171 148.973H0.802945V150.973H38.3171V148.973ZM-0.192093 150.072C2.23188 174.312 12.2444 193.549 28.2661 206.717C44.2774 219.875 66.202 226.901 92.3375 226.901V224.901C66.5534 224.901 45.1117 217.972 29.536 205.171C13.9707 192.379 4.17582 173.652 1.79798 149.873L-0.192093 150.072ZM92.3375 226.901C113.95 226.901 135.766 221.312 152.21 210.109C168.683 198.886 179.77 182.015 179.77 159.576H177.77C177.77 181.254 167.099 197.546 151.084 208.456C135.041 219.386 113.641 224.901 92.3375 224.901V226.901ZM179.77 159.576C179.77 137.479 170.523 122.703 156.432 112.584C142.405 102.511 123.619 97.077 104.528 93.4693L104.156 95.4345C123.18 99.0295 141.607 104.4 155.266 114.209C168.861 123.972 177.77 138.157 177.77 159.576H179.77ZM104.53 93.4696L77.8196 88.3677L77.4443 90.3322L104.154 95.4341L104.53 93.4696ZM77.8191 88.3676C68.442 86.5815 60.5227 83.6235 54.9653 79.1195C49.4504 74.6499 46.2197 68.6286 46.2197 60.5391H44.2197C44.2197 69.2558 47.7416 75.8393 53.706 80.6733C59.6279 85.4727 67.9148 88.517 77.4448 90.3323L77.8191 88.3676ZM46.2197 60.5391C46.2197 50.3617 52.1366 43.4454 60.2538 39.0212C68.3984 34.582 78.652 32.7282 86.9355 32.7282V30.7282C78.4125 30.7282 67.8083 32.6258 59.2966 37.2651C50.7575 41.9193 44.2197 49.4084 44.2197 60.5391H46.2197ZM86.9355 32.7282C97.6396 32.7282 108.48 34.589 117.394 39.6144C126.273 44.6205 133.298 52.796 136.382 65.5755L138.327 65.1062C135.109 51.7759 127.728 43.145 118.376 37.8722C109.058 32.6188 97.8395 30.7282 86.9355 30.7282V32.7282ZM137.354 66.3409H174.268V64.3409H137.354V66.3409ZM175.25 65.1523C170.856 42.2723 160.227 25.8281 145.174 15.1199C130.14 4.42484 110.787 -0.48359 89.0362 -0.48359V1.51641C110.502 1.51641 129.413 6.36166 144.015 16.7496C158.599 27.1243 168.977 43.0923 173.286 65.5295L175.25 65.1523ZM89.0362 -0.48359C68.9248 -0.48359 48.166 4.72987 32.403 15.0993C16.6151 25.4851 5.80521 41.0777 5.80521 61.7395H7.80521C7.80521 41.886 18.1533 26.8671 33.5022 16.7702C48.8759 6.65685 69.2326 1.51641 89.0362 1.51641V-0.48359ZM5.80521 61.7395C5.80521 80.4898 12.9862 94.3442 24.5692 104.398C36.1155 114.42 51.9822 120.622 69.3246 124.242L69.7332 122.284C52.5625 118.7 37.0674 112.598 25.8802 102.888C14.7295 93.209 7.80521 79.9032 7.80521 61.7395H5.80521ZM69.3392 124.245L95.7492 129.347L96.1285 127.383L69.7186 122.281L69.3392 124.245ZM349.183 151.473V152.473H350.124L350.181 151.534L349.183 151.473ZM347.382 173.682L348.345 173.951L348.699 172.682H347.382V173.682ZM312.269 173.682V172.682H311.599L311.344 173.301L312.269 173.682ZM228.837 151.473V150.473H227.754L227.841 151.553L228.837 151.473ZM312.869 125.364V126.364H313.905L313.869 125.328L312.869 125.364ZM228.837 125.364L227.843 125.255L227.723 126.364H228.837V125.364ZM350.181 151.534C351.844 124.322 344.818 100.43 331.055 83.3211C317.28 66.1971 296.807 55.9377 271.754 55.9377V57.9377C296.219 57.9377 316.112 67.9359 329.497 84.5747C342.893 101.228 349.823 124.604 348.185 151.412L350.181 151.534ZM271.754 55.9377C225.243 55.9377 191.524 90.9407 191.524 140.069H193.524C193.524 91.9608 226.43 57.9377 271.754 57.9377V55.9377ZM191.524 140.069C191.524 163.536 199.018 185.241 213.122 201.094C227.239 216.961 247.923 226.901 274.155 226.901V224.901C248.466 224.901 228.335 215.185 214.616 199.765C200.885 184.33 193.524 163.12 193.524 140.069H191.524ZM274.155 226.901C316.064 226.901 341.035 200.147 348.345 173.951L346.419 173.413C339.324 198.836 315.076 224.901 274.155 224.901V226.901ZM347.382 172.682H312.269V174.682H347.382V172.682ZM311.344 173.301C305.246 188.111 291.305 195.19 272.654 195.19V197.19C291.817 197.19 306.687 189.864 313.194 174.063L311.344 173.301ZM272.654 195.19C252.761 195.19 232.193 180.879 229.834 151.394L227.841 151.553C230.284 182.091 251.731 197.19 272.654 197.19V195.19ZM228.837 152.473H349.183V150.473H228.837V152.473ZM271.754 85.8482C292.262 85.8482 310.99 100.766 311.87 125.399L313.869 125.328C312.948 99.542 293.261 83.8482 271.754 83.8482V85.8482ZM312.869 124.364H228.837V126.364H312.869V124.364ZM229.832 125.472C231.454 110.573 237.852 100.697 245.842 94.5308C253.857 88.3461 263.536 85.8482 271.754 85.8482V83.8482C263.165 83.8482 253.037 86.4523 244.62 92.9474C236.179 99.4614 229.522 109.842 227.843 125.255L229.832 125.472ZM454.818 60.8392H455.818V59.9441L454.928 59.8453L454.818 60.8392ZM445.515 60.2389V59.2389H445.507L445.499 59.2391L445.515 60.2389ZM401.698 89.3499H400.698L402.598 89.7851L401.698 89.3499ZM401.698 60.5391H402.698V59.5391H401.698V60.5391ZM366.585 60.5391V59.5391H365.585V60.5391H366.585ZM366.585 222H365.585V223H366.585V222ZM402.298 222V223H403.298V222H402.298ZM454.818 96.8528L454.719 97.8478L455.818 97.9578V96.8528H454.818ZM454.928 59.8453C452.21 59.5432 448.267 59.2389 445.515 59.2389V61.2389C448.164 61.2389 452.024 61.5349 454.708 61.8331L454.928 59.8453ZM445.499 59.2391C425.578 59.5455 409.649 70.6014 400.798 88.9148L402.598 89.7851C411.153 72.0849 426.437 61.5326 445.53 61.2388L445.499 59.2391ZM402.698 89.3499V60.5391H400.698V89.3499H402.698ZM401.698 59.5391H366.585V61.5391H401.698V59.5391ZM365.585 60.5391V222H367.585V60.5391H365.585ZM366.585 223H402.298V221H366.585V223ZM403.298 222V137.368H401.298V222H403.298ZM403.298 137.368C403.298 121.257 406.512 111.223 412.286 105.198C418.046 99.1873 426.561 96.9524 437.712 96.9524V94.9524C426.353 94.9524 417.162 97.2192 410.842 103.814C404.537 110.393 401.298 121.067 401.298 137.368H403.298ZM437.712 96.9524C443.077 96.9524 448.746 97.2505 454.719 97.8478L454.918 95.8577C448.886 95.2546 443.15 94.9524 437.712 94.9524V96.9524ZM455.818 96.8528V60.8392H453.818V96.8528H455.818ZM502.578 60.5391L503.53 60.2318L503.306 59.5391H502.578V60.5391ZM463.263 60.5391V59.5391H461.835L462.324 60.8814L463.263 60.5391ZM522.086 222L521.146 222.342L521.386 223H522.086V222ZM555.698 222V223H556.401L556.639 222.339L555.698 222ZM613.92 60.5391L614.861 60.8783L615.344 59.5391H613.92V60.5391ZM576.706 60.5391V59.5391H575.976L575.754 60.234L576.706 60.5391ZM539.792 175.783L538.841 176.09L539.796 179.049L540.745 176.088L539.792 175.783ZM502.578 59.5391H463.263V61.5391H502.578V59.5391ZM462.324 60.8814L521.146 222.342L523.025 221.658L464.203 60.1968L462.324 60.8814ZM522.086 223H555.698V221H522.086V223ZM556.639 222.339L614.861 60.8783L612.98 60.1998L554.758 221.661L556.639 222.339ZM613.92 59.5391H576.706V61.5391H613.92V59.5391ZM575.754 60.234L538.84 175.478L540.745 176.088L577.659 60.8441L575.754 60.234ZM540.744 175.475L503.53 60.2318L501.627 60.8463L538.841 176.09L540.744 175.475ZM622.009 4.41789V3.41789H621.009V4.41789H622.009ZM622.009 40.4315H621.009V41.4315H622.009V40.4315ZM657.723 40.4315V41.4315H658.723V40.4315H657.723ZM657.723 4.41789H658.723V3.41789H657.723V4.41789ZM622.009 60.5391V59.5391H621.009V60.5391H622.009ZM622.009 222H621.009V223H622.009V222ZM657.723 222V223H658.723V222H657.723ZM657.723 60.5391H658.723V59.5391H657.723V60.5391ZM621.009 4.41789V40.4315H623.009V4.41789H621.009ZM622.009 41.4315H657.723V39.4315H622.009V41.4315ZM658.723 40.4315V4.41789H656.723V40.4315H658.723ZM657.723 3.41789H622.009V5.41789H657.723V3.41789ZM621.009 60.5391V222H623.009V60.5391H621.009ZM622.009 223H657.723V221H622.009V223ZM658.723 222V60.5391H656.723V222H658.723ZM657.723 59.5391H622.009V61.5391H657.723V59.5391ZM827.566 166.779L828.548 166.966L828.774 165.779H827.566V166.779ZM792.753 166.779V165.779H791.95L791.776 166.562L792.753 166.779ZM791.552 115.76L790.57 115.949L790.727 116.76H791.552V115.76ZM826.365 115.76V116.76H827.557L827.35 115.586L826.365 115.76ZM754.038 55.9377C729.611 55.9377 709.53 65.2002 695.563 80.5745C681.606 95.9392 673.808 117.348 673.808 141.57H675.808C675.808 117.773 683.466 96.866 697.044 81.9193C710.613 66.9821 730.147 57.9377 754.038 57.9377V55.9377ZM673.808 141.57C673.808 165.791 681.606 187.123 695.373 202.412C709.148 217.709 728.854 226.901 752.537 226.901V224.901C729.403 224.901 710.244 215.937 696.859 201.073C683.466 186.2 675.808 165.366 675.808 141.57H673.808ZM752.537 226.901C787.436 226.901 821.239 205.339 828.548 166.966L826.583 166.592C819.487 203.848 786.664 224.901 752.537 224.901V226.901ZM827.566 165.779H792.753V167.779H827.566V165.779ZM791.776 166.562C789.429 177.124 784.098 184.25 777.236 188.752C770.351 193.268 761.854 195.19 753.138 195.19V197.19C762.128 197.19 771.037 195.211 778.333 190.424C785.651 185.622 791.274 178.042 793.729 166.996L791.776 166.562ZM753.138 195.19C742.904 195.19 732.833 191.175 725.308 182.481C717.776 173.779 712.722 160.304 712.722 141.27H710.722C710.722 160.65 715.871 174.634 723.796 183.79C731.726 192.952 742.363 197.19 753.138 197.19V195.19ZM712.722 141.27C712.722 122.379 717.629 108.983 725.192 100.324C732.746 91.6756 743.038 87.6489 754.038 87.6489V85.6489C742.53 85.6489 731.663 89.8754 723.686 99.0085C715.718 108.131 710.722 122.046 710.722 141.27H712.722ZM754.038 87.6489C773.107 87.6489 787.367 99.3521 790.57 115.949L792.534 115.57C789.134 97.9548 773.984 85.6489 754.038 85.6489V87.6489ZM791.552 116.76H826.365V114.76H791.552V116.76ZM827.35 115.586C820.956 79.3512 789.891 55.9377 754.038 55.9377V57.9377C789.012 57.9377 819.17 80.7416 825.38 115.934L827.35 115.586ZM989.749 151.473V152.473H990.69L990.747 151.534L989.749 151.473ZM987.948 173.682L988.911 173.951L989.265 172.682H987.948V173.682ZM952.835 173.682V172.682H952.165L951.91 173.301L952.835 173.682ZM869.403 151.473V150.473H868.32L868.407 151.553L869.403 151.473ZM953.435 125.364V126.364H954.471L954.434 125.328L953.435 125.364ZM869.403 125.364L868.409 125.255L868.289 126.364H869.403V125.364ZM990.747 151.534C992.41 124.322 985.384 100.43 971.621 83.3211C957.846 66.1971 937.373 55.9377 912.32 55.9377V57.9377C936.785 57.9377 956.677 67.9359 970.062 84.5747C983.459 101.228 990.389 124.604 988.751 151.412L990.747 151.534ZM912.32 55.9377C865.809 55.9377 832.09 90.9407 832.09 140.069H834.09C834.09 91.9608 866.996 57.9377 912.32 57.9377V55.9377ZM832.09 140.069C832.09 163.536 839.584 185.241 853.688 201.094C867.805 216.961 888.489 226.901 914.72 226.901V224.901C889.032 224.901 868.901 215.185 855.182 199.765C841.451 184.33 834.09 163.12 834.09 140.069H832.09ZM914.72 226.901C956.63 226.901 981.601 200.147 988.911 173.951L986.985 173.413C979.89 198.836 955.642 224.901 914.72 224.901V226.901ZM987.948 172.682H952.835V174.682H987.948V172.682ZM951.91 173.301C945.812 188.111 931.871 195.19 913.22 195.19V197.19C932.383 197.19 947.253 189.864 953.76 174.063L951.91 173.301ZM913.22 195.19C893.327 195.19 872.759 180.879 870.4 151.394L868.407 151.553C870.85 182.091 892.297 197.19 913.22 197.19V195.19ZM869.403 152.473H989.749V150.473H869.403V152.473ZM912.32 85.8482C932.828 85.8482 951.556 100.766 952.436 125.399L954.434 125.328C953.514 99.542 933.827 83.8482 912.32 83.8482V85.8482ZM953.435 124.364H869.403V126.364H953.435V124.364ZM870.397 125.472C872.02 110.573 878.418 100.697 886.408 94.5308C894.422 88.3461 904.102 85.8482 912.32 85.8482V83.8482C903.731 83.8482 893.603 86.4523 885.186 92.9474C876.745 99.4614 870.088 109.842 868.409 125.255L870.397 125.472ZM1133.48 104.656V105.656H1134.71L1134.46 104.456L1133.48 104.656ZM1049.45 150.873L1049.25 151.852L1049.26 151.854L1049.45 150.873ZM1073.76 155.675L1073.96 154.696L1073.96 154.694L1073.76 155.675ZM1032.95 172.781L1033.93 172.589L1033.77 171.781H1032.95V172.781ZM998.133 172.781V171.781H996.996L997.141 172.909L998.133 172.781ZM1078.86 125.664L1078.67 126.645L1078.67 126.646L1078.86 125.664ZM1056.06 121.162L1056.25 120.181L1056.24 120.18L1056.06 121.162ZM1099.87 104.656L1098.91 104.912L1099.1 105.656H1099.87V104.656ZM1134.46 104.456C1127.73 71.416 1098.36 55.9377 1066.56 55.9377V57.9377C1097.78 57.9377 1126.03 73.071 1132.5 104.855L1134.46 104.456ZM1066.56 55.9377C1048.99 55.9377 1032.36 60.5545 1020.08 68.8257C1007.8 77.1058 999.834 89.0923 999.834 103.755H1001.83C1001.83 89.9077 1009.33 78.4853 1021.2 70.4843C1033.09 62.4743 1049.31 57.9377 1066.56 57.9377V55.9377ZM999.834 103.755C999.834 118.889 1005.28 129.53 1014.26 137.083C1023.19 144.594 1035.53 148.989 1049.25 151.852L1049.66 149.894C1036.06 147.055 1024.1 142.747 1015.55 135.552C1007.04 128.4 1001.83 118.333 1001.83 103.755H999.834ZM1049.26 151.854L1073.57 156.656L1073.96 154.694L1049.65 149.892L1049.26 151.854ZM1073.56 156.654C1081.48 158.297 1088.29 160.515 1093.11 163.885C1097.87 167.215 1100.67 171.654 1100.67 177.883H1102.67C1102.67 170.908 1099.47 165.893 1094.25 162.246C1089.09 158.637 1081.95 156.354 1073.96 154.696L1073.56 156.654ZM1100.67 177.883C1100.67 184.086 1097.52 189.042 1092.02 192.492C1086.49 195.963 1078.59 197.891 1069.26 197.891V199.891C1078.83 199.891 1087.14 197.919 1093.09 194.186C1099.07 190.433 1102.67 184.885 1102.67 177.883H1100.67ZM1069.26 197.891C1058.74 197.891 1050.72 195.595 1044.94 191.334C1039.18 187.084 1035.54 180.798 1033.93 172.589L1031.97 172.974C1033.65 181.571 1037.52 188.34 1043.76 192.944C1049.98 197.536 1058.47 199.891 1069.26 199.891V197.891ZM1032.95 171.781H998.133V173.781H1032.95V171.781ZM997.141 172.909C1001.12 203.811 1028.04 226.901 1068.06 226.901V224.901C1028.85 224.901 1002.95 202.374 999.125 172.654L997.141 172.909ZM1068.06 226.901C1086.52 226.901 1103.84 222.213 1116.58 213.213C1129.34 204.194 1137.49 190.849 1137.49 173.682H1135.49C1135.49 190.128 1127.72 202.892 1115.43 211.58C1103.1 220.287 1086.21 224.901 1068.06 224.901V226.901ZM1137.49 173.682C1137.49 157.6 1131.1 146.867 1120.52 139.402C1110.01 131.993 1095.43 127.836 1079.05 124.682L1078.67 126.646C1095.01 129.794 1109.24 133.89 1119.37 141.036C1129.42 148.127 1135.49 158.251 1135.49 173.682H1137.49ZM1079.06 124.683L1056.25 120.181L1055.86 122.143L1078.67 126.645L1079.06 124.683ZM1056.24 120.18C1049.26 118.843 1044.06 116.787 1040.61 113.837C1037.21 110.929 1035.45 107.089 1035.45 101.955H1033.45C1033.45 107.624 1035.43 112.038 1039.31 115.357C1043.14 118.635 1048.74 120.78 1055.87 122.144L1056.24 120.18ZM1035.45 101.955C1035.45 97.0602 1038.7 92.9075 1044.08 89.9245C1049.46 86.9475 1056.79 85.248 1064.46 85.248V83.248C1056.52 83.248 1048.85 84.9998 1043.12 88.1751C1037.4 91.3445 1033.45 96.0451 1033.45 101.955H1035.45ZM1064.46 85.248C1073.37 85.248 1081.07 86.662 1086.98 89.8195C1092.86 92.9581 1097.03 97.839 1098.91 104.912L1100.84 104.399C1098.81 96.7669 1094.27 91.4439 1087.93 88.0551C1081.61 84.6851 1073.55 83.248 1064.46 83.248V85.248ZM1099.87 105.656H1133.48V103.656H1099.87V105.656Z" fill="white"/>
</svg>
