<svg width="1160" height="218" viewBox="0 0 1160 218" fill="none" xmlns="http://www.w3.org/2000/svg">
<path d="M174.094 214.136V3.77204H138.405V171.773L49.3267 3.77204H0V214.136H35.6893V46.135L124.768 214.136H174.094Z" fill="white"/>
<path d="M299.759 152.623C299.759 179.317 284.671 192.084 259.137 192.084C241.728 192.084 230.412 183.96 230.412 170.322C230.412 152.623 250.433 145.369 299.759 140.726V152.623ZM251.593 217.908C274.806 217.908 292.796 210.074 302.951 192.954C303.822 203.69 304.692 207.462 305.853 214.136H337.48C334.288 201.079 332.837 180.478 332.837 160.747C332.837 146.529 333.418 127.959 333.418 120.415C334.288 70.5082 304.982 53.3889 267.552 53.3889C229.832 53.3889 203.427 75.4408 201.106 107.068H235.054C235.925 88.2077 248.982 78.9227 266.391 78.9227C283.801 78.9227 298.889 87.0471 298.889 113.742V116.643C242.018 122.736 193.852 132.021 193.852 171.193C193.852 199.628 217.645 217.908 251.593 217.908Z" fill="white"/>
<path d="M362.787 58.0314H341.025V82.9849H362.787V214.136H397.316V82.9849H428.072V58.0314H397.316V49.6168C397.316 33.3681 401.088 30.1763 418.207 30.1763H428.072V3.77204H414.435C376.424 3.77204 362.787 12.1866 362.787 48.4562V58.0314Z" fill="white"/>
<path d="M445.262 58.0314H422.049V82.9849H445.262V173.224C445.262 205.141 451.935 214.136 485.303 214.136H510.837V187.732H498.36C483.562 187.732 479.79 183.96 479.79 168.001V82.9849H511.127V58.0314H479.79V16.8291H445.262V58.0314Z" fill="white"/>
<path d="M623.953 152.623C623.953 179.317 608.865 192.084 583.331 192.084C565.922 192.084 554.606 183.96 554.606 170.322C554.606 152.623 574.626 145.369 623.953 140.726V152.623ZM575.787 217.908C599 217.908 616.989 210.074 627.145 192.954C628.015 203.69 628.886 207.462 630.046 214.136H661.673C658.482 201.079 657.031 180.478 657.031 160.747C657.031 146.529 657.611 127.959 657.611 120.415C658.482 70.5082 629.176 53.3889 591.746 53.3889C554.025 53.3889 527.621 75.4408 525.3 107.068H559.248C560.119 88.2077 573.176 78.9227 590.585 78.9227C607.994 78.9227 623.083 87.0471 623.083 113.742V116.643C566.212 122.736 518.046 132.021 518.046 171.193C518.046 199.628 541.839 217.908 575.787 217.908Z" fill="white"/>
<path d="M775.222 0C712.548 0 674.248 42.9432 674.248 108.229C674.248 174.384 710.227 217.908 770 217.908C799.015 217.908 821.938 207.462 834.414 188.892L835.575 214.136H864.591V104.166H776.673V135.213H830.352V139.275C830.352 176.706 799.015 187.732 774.062 187.732C736.922 187.732 712.258 159.296 712.258 108.229C712.258 56.5806 738.372 30.1763 774.352 30.1763C802.207 30.1763 821.938 44.6842 828.901 70.5081H864.01C855.016 25.5338 822.518 0 775.222 0Z" fill="white"/>
<path d="M986.389 152.623C986.389 179.317 971.301 192.084 945.767 192.084C928.357 192.084 917.041 183.96 917.041 170.322C917.041 152.623 937.062 145.369 986.389 140.726V152.623ZM938.223 217.908C961.435 217.908 979.425 210.074 989.58 192.954C990.451 203.69 991.321 207.462 992.482 214.136H1024.11C1020.92 201.079 1019.47 180.478 1019.47 160.747C1019.47 146.529 1020.05 127.959 1020.05 120.415C1020.92 70.5082 991.611 53.3889 954.181 53.3889C916.461 53.3889 890.057 75.4408 887.735 107.068H921.684C922.554 88.2077 935.611 78.9227 953.021 78.9227C970.43 78.9227 985.518 87.0471 985.518 113.742V116.643C928.647 122.736 880.481 132.021 880.481 171.193C880.481 199.628 904.274 217.908 938.223 217.908Z" fill="white"/>
<path d="M1031.46 214.136H1160V187.732H1074.11L1157.97 84.4357V58.0314H1037.26V84.4357H1115.03L1031.46 187.732V214.136Z" fill="white"/>
</svg>
